# xmcd CD database file
#
# Track frame offsets:
#	150
#	13316
#	23443
#	34952
#	52641
#	64554
#	75938
#	88732
#	102648
#	120559
#	130078
#	139168
#	151621
#	156775
#	169240
#	176886
#	185289
#	198419
#	211999
#
# Disc length: 3047 seconds
#
# Revision: 0
# Processed by: cddbd v1.5.2PL0 Copyright (c) Steve Scherf et al.
# Submitted via: CDex 1.40Beta8
#
DISCID=f10be513
DTITLE=Delmiro Barros - Uma Chuva de Saudade
DYEAR=2004
DGENRE=Forró
TTITLE0=Linda Flôr
TTITLE1=Mulher do Cabelão
TTITLE2=Volta Prá Mim
TTITLE3=Santa Mulher
TTITLE4=Fogo de Desejo
TTITLE5=Alegria Presa
TTITLE6=Uma Chuva de Saudade
TTITLE7=Canteiro de Ilusão
TTITLE8=Amor Sem Igual
TTITLE9=Pajeú
TTITLE10=Lição de Amor
TTITLE11=Bota Prá Crescer
TTITLE12=Caminhei
TTITLE13=Chão Que Amo
TTITLE14=Balanço
TTITLE15=Coração Bandoleiro
TTITLE16=Chora Madrugada
TTITLE17=Parque Maria Diniz
TTITLE18=Alforria ao Boi de Carro
EXTD=YEAR: 2004
EXTT0=
EXTT1=
EXTT2=
EXTT3=
EXTT4=
EXTT5=
EXTT6=
EXTT7=
EXTT8=
EXTT9=
EXTT10=
EXTT11=
EXTT12=
EXTT13=
EXTT14=
EXTT15=
EXTT16=
EXTT17=
EXTT18=
PLAYORDER=
